<?xml version="1.0" encoding="UTF-8"?>
<!-- Generated by Pixelmator Pro 3.5.3 -->
<svg width="1280" height="640" viewBox="0 0 1280 640" xmlns="http://www.w3.org/2000/svg">
    <g id="Group-copy">
        <path id="Path" fill="#97741f" stroke="none" d="M 639 298.432587 C 665.332275 298.432587 686.648865 305.203766 686.648865 313.479614 C 686.648865 321.755493 665.332275 328.526642 639 328.526642 C 612.667725 328.526642 591.351074 321.755493 591.351074 313.479614 C 591.351074 305.203766 612.667725 298.432587 639 298.432587 M 534.67395 164.012543 C 535.927856 164.012543 537.181824 163.76181 538.43573 163.511017 L 581.821289 310.721008 C 586.586243 327.272705 610.661438 339.561096 639.250793 339.561096 C 668.090881 339.561096 691.915344 327.021942 696.680237 310.721008 L 739.815063 163.76181 C 740.818176 164.012543 742.072083 164.263336 743.075195 164.263336 C 751.601868 164.263336 758.373047 157.492218 758.373047 148.965515 C 758.373047 140.689667 751.601868 133.667755 743.075195 133.667755 C 734.548584 133.667755 727.777405 140.438873 727.777405 148.965515 C 727.777405 154.984375 731.28833 160.250763 736.55481 162.758606 L 686.398071 270.344879 L 694.423218 125.391846 L 694.674011 125.391846 C 703.200623 125.391846 709.971741 118.620728 709.971741 110.094055 C 709.971741 101.567383 703.200623 94.796326 694.674011 94.796326 C 686.147278 94.796326 679.37616 101.567383 679.37616 110.094055 C 679.37616 117.116028 684.141052 122.884033 690.410645 124.639526 L 657.056458 266.332306 L 641.006287 110.344849 C 648.278992 109.341736 654.046997 103.072144 654.046997 95.297791 C 654.046997 87.021973 647.275879 80 638.749207 80 C 630.222534 80 623.451416 86.771179 623.451416 95.297791 C 623.451416 103.072144 629.219421 109.341736 636.492126 110.344849 L 620.442017 266.081512 L 587.087769 124.89032 C 593.608154 123.134827 598.122253 117.116028 598.122253 110.344849 C 598.122253 101.818237 591.351074 95.046997 582.824463 95.046997 C 574.297791 95.046997 567.526672 101.818237 567.526672 110.344849 C 567.526672 118.620728 574.297791 125.642639 582.824463 125.642639 L 583.075195 125.642639 L 591.100281 270.344879 L 540.943542 162.758606 C 545.959229 160.250763 549.219421 155.235107 549.219421 149.216309 C 549.219421 140.940491 542.448303 133.918488 533.921631 133.918488 C 525.645752 133.918488 518.62384 140.689667 518.62384 149.216309 C 519.37616 157.241425 526.398132 164.012543 534.67395 164.012543"/>
        <g id="Group">
            <path id="path1" fill="#004c25" stroke="none" d="M 529.156738 497.304077 C 513.608154 540.689636 508.592468 544.702148 492.291534 544.702148 L 448.905975 544.702148 L 448.905975 482.25708 L 466.210052 482.25708 C 476.492157 482.25708 482.510986 486.269531 487.777435 508.840088 L 488.529785 511.598694 L 500.818176 511.598694 L 500.818176 440.877747 L 488.529785 440.877747 L 487.777435 443.636322 C 482.510986 466.206848 476.492157 470.219421 466.210052 470.219421 L 448.905975 470.219421 L 448.905975 413.291565 L 498.05957 413.291565 C 508.592468 413.291565 512.103455 413.291565 526.648926 453.667664 L 527.401245 455.924774 L 539.438904 455.924774 L 539.438904 401.5047 L 396.993744 401.5047 L 396.993744 413.291565 L 413.043884 413.291565 L 413.043884 544.200562 L 396.993744 544.200562 L 396.993744 555.987427 L 541.946716 555.987427 L 541.946716 494.294647 L 529.909119 494.294647 L 529.156738 497.304077 Z"/>
            <path id="path2" fill="#004c25" stroke="none" d="M 653.545471 497.053284 L 681.884033 497.053284 L 681.884033 533.918457 C 681.884033 540.689636 671.100281 548.213135 655.802551 548.213135 C 626.962341 548.213135 612.166138 537.429443 612.166138 479.24762 C 612.166138 422.06897 630.473389 410.282104 657.808777 410.282104 C 679.626953 410.282104 688.153625 423.322906 699.940369 454.420044 L 700.69281 456.677094 L 712.479553 456.677094 L 712.479553 408.275879 L 709.971741 407.523499 C 693.16925 402.006287 679.125366 398.495239 660.818176 398.495239 C 608.153564 398.495239 571.539185 431.598724 571.539185 479.24762 C 571.539185 530.658264 602.636353 560 656.805664 560 C 681.884033 560 703.451416 553.98114 714.987427 548.463928 L 716.993713 547.460815 L 716.993713 497.053284 L 728.780518 497.053284 L 728.780518 485.266418 L 652.793091 485.266418 L 652.793091 497.053284 Z"/>
            <path id="path3" fill="#004c25" stroke="none" d="M 892.291504 497.304077 C 876.742859 540.689636 871.727173 544.702148 855.42627 544.702148 L 812.04071 544.702148 L 812.04071 482.25708 L 829.344788 482.25708 C 839.626892 482.25708 845.645691 486.269531 850.91217 508.840088 L 851.66449 511.598694 L 863.952942 511.598694 L 863.952942 440.877747 L 851.66449 440.877747 L 850.91217 443.636322 C 845.645691 466.206848 839.626892 470.219421 829.344788 470.219421 L 812.04071 470.219421 L 812.04071 413.291565 L 861.194336 413.291565 C 871.727173 413.291565 875.23822 413.291565 889.78363 453.667664 L 890.53595 455.924774 L 902.322815 455.924774 L 902.322815 401.5047 L 759.877747 401.5047 L 759.877747 413.291565 L 775.927856 413.291565 L 775.927856 544.200562 L 759.877747 544.200562 L 759.877747 555.987427 L 904.830688 555.987427 L 904.830688 494.294647 L 892.793091 494.294647 L 892.291504 497.304077 Z"/>
            <path id="path4" fill="#004c25" stroke="none" d="M 1076.617432 544.953003 L 1023.702148 463.699005 L 1061.068848 413.793091 L 1078.373047 413.793091 L 1078.373047 402.006287 L 1025.959106 402.006287 L 1025.959106 413.793091 L 1034.736572 413.793091 C 1038.749146 413.793091 1040.755493 418.307251 1038.498291 421.316589 L 1015.677063 451.661438 L 995.363586 421.065796 C 993.3573 417.805634 995.61438 413.793091 999.37616 413.793091 L 1007.401184 413.793091 L 1007.401184 402.006287 L 933.670776 402.006287 L 933.670776 413.793091 L 950.72406 413.793091 L 993.106567 477.241394 L 941.946655 544.702148 L 926.398071 544.702148 L 926.398071 556.488953 L 983.075195 556.488953 L 983.075195 544.702148 L 968.278931 544.702148 C 964.266418 544.702148 962.260132 540.188049 964.517151 537.17865 L 1000.880798 488.777374 L 1032.730347 537.429443 C 1034.736572 540.689636 1032.479492 544.702148 1028.717773 544.702148 L 1017.432556 544.702148 L 1017.432556 556.488953 L 1089.658325 556.488953 L 1089.658325 544.702148 L 1076.617432 544.702148 Z"/>
            <path id="path5" fill="#004c25" stroke="none" d="M 283.13797 471.473328 L 246.021988 471.473328 L 246.021988 415.799377 L 282.887177 415.799377 C 298.937347 416.551697 311.476532 427.586182 311.476532 443.636322 C 311.727295 459.686523 298.937347 470.721008 283.13797 471.473328 M 354.109741 544.953003 L 344.078369 515.611267 C 339.313507 502.570496 336.053314 496.80249 328.780609 490.031311 C 324.015717 485.768005 317.244537 483.510986 312.228851 482.25708 C 331.037628 479.24762 345.332306 462.946686 345.332306 443.38559 C 345.332306 421.818176 327.777466 404.012512 305.959259 404.012512 C 305.708496 404.012512 305.457703 404.012512 305.20694 404.012512 L 305.20694 404.012512 L 188.843307 404.012512 L 188.843307 415.548584 L 210.159912 415.548584 L 210.159912 544.953003 L 188.341751 544.953003 L 188.341751 556.488953 L 245.520416 556.488953 L 267.589386 556.488953 L 267.589386 544.953003 L 245.771194 544.953003 L 245.771194 483.009399 L 262.824493 483.009399 C 263.32605 483.009399 263.827637 483.009399 264.329193 483.009399 L 267.840149 483.009399 C 273.357391 483.260193 277.871521 484.012512 282.134827 485.266418 C 286.147369 486.269531 290.159912 487.523438 292.918518 489.529785 C 296.680298 492.037598 300.69281 495.297791 304.203796 501.316559 C 305.20694 502.821289 305.959259 504.576782 306.711639 506.081512 C 313.231995 518.369873 316.993744 535.172363 321.507874 556.739746 L 347.589386 556.739746 L 347.589386 556.739746 L 371.163025 556.739746 L 371.163025 545.203735 L 354.109741 545.203735 Z"/>
        </g>
    </g>
</svg>
